<svg xmlns="http://www.w3.org/2000/svg" viewBox="0 0 1200 600">
  <defs>
    <linearGradient id="bg" x1="0%" y1="0%" x2="100%" y2="100%">
      <stop offset="0%" style="stop-color:#054241"/>
      <stop offset="50%" style="stop-color:#0a6b66"/>
      <stop offset="100%" style="stop-color:#3a7569"/>
    </linearGradient>
  </defs>
  <rect width="1200" height="600" fill="url(#bg)"/>

  <!-- Pie chart -->
  <circle cx="600" cy="280" r="70" fill="none" stroke="#6abfb8" stroke-width="2" opacity=".4"/>
  <path d="M600 280 L600 210 A70 70 0 0 1 660 250 Z" fill="#6abfb8" opacity=".2"/>
  <path d="M600 280 L660 250 A70 70 0 0 1 640 340 Z" fill="#fd781c" opacity=".2"/>
  <path d="M600 280 L640 340 A70 70 0 0 1 560 340 Z" fill="#6abfb8" opacity=".15"/>
  <path d="M600 280 L560 340 A70 70 0 0 1 540 250 Z" fill="#fd781c" opacity=".15"/>
  <text x="600" y="400" text-anchor="middle" fill="#6abfb8" font-family="sans-serif" font-size="16" opacity=".5">محفظة استثمارية</text>
  <!-- Decorative dots -->
  <circle cx="80" cy="80" r="3" fill="#6abfb8" opacity=".3"/>
  <circle cx="1120" cy="520" r="4" fill="#6abfb8" opacity=".25"/>
  <circle cx="200" cy="500" r="2" fill="#fd781c" opacity=".4"/>
  <circle cx="1000" cy="100" r="2" fill="#fd781c" opacity=".3"/>
  <circle cx="600" cy="60" r="3" fill="#6abfb8" opacity=".2"/>
  <circle cx="350" cy="120" r="2" fill="#6abfb8" opacity=".3"/>
  <circle cx="850" cy="480" r="2" fill="#fd781c" opacity=".2"/>
</svg>